<svg width="512" height="366" viewBox="0 0 512 366" fill="none" xmlns="http://www.w3.org/2000/svg">
<path d="M496 -36.5C477.995 -28.6765 458.944 -23.5222 439.45 -21.2C459.937 -33.1962 475.343 -52.2544 482.78 -74.8C463.411 -63.4741 442.256 -55.5273 420.22 -51.3C410.941 -61.0247 399.781 -68.761 387.419 -74.0386C375.057 -79.3162 361.751 -82.0249 348.31 -82C293.89 -82 249.85 -38.6 249.85 14.9C249.811 22.3416 250.664 29.7611 252.39 37C213.367 35.1706 175.155 25.2158 140.2 7.77254C105.244 -9.67074 74.3149 -34.2184 49.39 -64.3C40.6457 -49.5588 36.0213 -32.7396 36 -15.6C36 18 53.53 47.7 80 65.1C64.3173 64.7278 48.9559 60.577 35.22 53V54.2C35.22 101.2 69.22 140.3 114.22 149.2C105.758 151.456 97.0377 152.599 88.28 152.6C82.0658 152.611 75.8657 152.008 69.77 150.8C82.28 189.3 118.69 217.3 161.82 218.1C126.774 245.109 83.7462 259.707 39.5 259.6C31.6462 259.588 23.7997 259.121 16 258.2C61.0118 286.942 113.334 302.145 166.74 302C348.1 302 447.18 154.3 447.18 26.2C447.18 22 447.07 17.8 446.87 13.7C466.101 0.0205727 482.738 -16.9789 496 -36.5V-36.5Z" fill="#7E80A5"/>
</svg>
