<svg width="512" height="512" viewBox="0 0 512 512" fill="none" xmlns="http://www.w3.org/2000/svg">
<g clip-path="url(#clip0_138_4)">
<path d="M508.64 148.79C508.64 103.79 475.54 67.59 434.64 67.59C379.24 65 322.74 64 265 64H247C189.4 64 132.8 65 77.4 67.6C36.6 67.6 3.49998 104 3.49998 149C0.999978 184.59 -0.0600224 220.19 -2.24356e-05 255.79C-0.100022 291.39 1.03331 327.023 3.39998 362.69C3.39998 407.69 36.5 444.19 77.3 444.19C135.5 446.89 195.2 448.09 255.9 447.99C316.7 448.19 376.233 446.923 434.5 444.19C475.4 444.19 508.5 407.69 508.5 362.69C510.9 326.99 512 291.39 511.9 255.69C512.127 220.09 511.04 184.457 508.64 148.79ZM207 353.89V157.39L352 255.59L207 353.89Z" fill="#8486A9"/>
</g>
<defs>
<clipPath id="clip0_138_4">
<rect width="512" height="512" fill="white"/>
</clipPath>
</defs>
</svg>
